HIERARCHY
ROOT Root
{
  OFFSET 0.0 0.0 0.0
  CHANNELS 6 Xposition Yposition Zposition Zrotation Yrotation Xrotation
  JOINT Hips
  {
    OFFSET 0.0 100.0 0.0
    CHANNELS 6 Xposition Yposition Zposition Zrotation Yrotation Xrotation
    JOINT Spine1
    {
      OFFSET 5.003913 -0.037094 -0.013727
      CHANNELS 3 Zrotation Yrotation Xrotation
      JOINT Spine2
      {
        OFFSET 7.125363 -1e-06 0.0
        CHANNELS 3 Zrotation Yrotation Xrotation
        JOINT Chest
        {
          OFFSET 7.594027 1e-06 0.0
          CHANNELS 3 Zrotation Yrotation Xrotation
          JOINT Neck1
          {
            OFFSET 26.313086 -0.460272 -0.181672
            CHANNELS 3 Zrotation Yrotation Xrotation
            JOINT Neck2
            {
              OFFSET 8.045911 0.0 0.0
              CHANNELS 3 Zrotation Yrotation Xrotation
              JOINT Head
              {
                OFFSET 6.432774 0.0 0.0
                CHANNELS 3 Zrotation Yrotation Xrotation
                JOINT HeadEnd
                {
                  OFFSET 16.169773 0.06451 0.00362
                  CHANNELS 3 Zrotation Yrotation Xrotation
                }
                JOINT Jaw
                {
                  OFFSET 0.108741 3.12938 0.002639
                  CHANNELS 3 Zrotation Yrotation Xrotation
                }
                JOINT LeftEye
                {
                  OFFSET 4.45173 8.166359 3.206392
                  CHANNELS 3 Zrotation Yrotation Xrotation
                }
                JOINT RightEye
                {
                  OFFSET 4.436895 8.135758 -3.222429
                  CHANNELS 3 Zrotation Yrotation Xrotation
                }
              }
            }
          }
          JOINT LeftShoulder
          {
            OFFSET 23.218927 5.195579 1.621656
            CHANNELS 3 Zrotation Yrotation Xrotation
            JOINT LeftArm
            {
              OFFSET 15.902118 2e-06 -2e-06
              CHANNELS 3 Zrotation Yrotation Xrotation
              JOINT LeftForeArm
              {
                OFFSET 28.739307 0.0 -1e-06
                CHANNELS 3 Zrotation Yrotation Xrotation
                JOINT LeftHand
                {
                  OFFSET 27.093981 -4e-06 0.0
                  CHANNELS 3 Zrotation Yrotation Xrotation
                  JOINT LeftHandThumb1
                  {
                    OFFSET 2.276781 3.380274 0.83384
                    CHANNELS 3 Zrotation Yrotation Xrotation
                    JOINT LeftHandThumb2
                    {
                      OFFSET 4.705309 -1e-06 -1e-06
                      CHANNELS 3 Zrotation Yrotation Xrotation
                      JOINT LeftHandThumb3
                      {
                        OFFSET 2.798515 0.0 3e-06
                        CHANNELS 3 Zrotation Yrotation Xrotation
                        JOINT LeftHandThumbEnd
                        {
                          OFFSET 3.180793 4e-06 -4e-06
                          CHANNELS 3 Zrotation Yrotation Xrotation
                        }
                      }
                    }
                  }
                  JOINT LeftHandIndex1
                  {
                    OFFSET 3.247786 2.352677 0.137192
                    CHANNELS 3 Zrotation Yrotation Xrotation
                    JOINT LeftHandIndex2
                    {
                      OFFSET 6.367095 1e-06 0.0
                      CHANNELS 3 Zrotation Yrotation Xrotation
                      JOINT LeftHandIndex3
                      {
                        OFFSET 3.662364 0.0 0.0
                        CHANNELS 3 Zrotation Yrotation Xrotation
                        JOINT LeftHandIndex4
                        {
                          OFFSET 2.329242 4e-06 -4e-06
                          CHANNELS 3 Zrotation Yrotation Xrotation
                          JOINT LeftHandIndexEnd
                          {
                            OFFSET 2.767823 1e-06 0.0
                            CHANNELS 3 Zrotation Yrotation Xrotation
                          }
                        }
                      }
                    }
                  }
                  JOINT LeftHandMiddle1
                  {
                    OFFSET 3.163612 0.945023 -0.406112
                    CHANNELS 3 Zrotation Yrotation Xrotation
                    JOINT LeftHandMiddle2
                    {
                      OFFSET 6.276789 3e-06 0.0
                      CHANNELS 3 Zrotation Yrotation Xrotation
                      JOINT LeftHandMiddle3
                      {
                        OFFSET 4.35652 -1e-06 4e-06
                        CHANNELS 3 Zrotation Yrotation Xrotation
                        JOINT LeftHandMiddle4
                        {
                          OFFSET 2.996877 0.0 8e-06
                          CHANNELS 3 Zrotation Yrotation Xrotation
                          JOINT LeftHandMiddleEnd
                          {
                            OFFSET 2.323256 3e-06 -4e-06
                            CHANNELS 3 Zrotation Yrotation Xrotation
                          }
                        }
                      }
                    }
                  }
                  JOINT LeftHandRing1
                  {
                    OFFSET 2.882606 -0.309162 0.107445
                    CHANNELS 3 Zrotation Yrotation Xrotation
                    JOINT LeftHandRing2
                    {
                      OFFSET 6.033198 0.0 4e-06
                      CHANNELS 3 Zrotation Yrotation Xrotation
                      JOINT LeftHandRing3
                      {
                        OFFSET 4.350578 3e-06 0.0
                        CHANNELS 3 Zrotation Yrotation Xrotation
                        JOINT LeftHandRing4
                        {
                          OFFSET 2.651321 2e-06 -7e-06
                          CHANNELS 3 Zrotation Yrotation Xrotation
                          JOINT LeftHandRingEnd
                          {
                            OFFSET 1.937663 1e-06 -4e-06
                            CHANNELS 3 Zrotation Yrotation Xrotation
                          }
                        }
                      }
                    }
                  }
                  JOINT LeftHandPinky1
                  {
                    OFFSET 2.865315 -1.525436 0.575687
                    CHANNELS 3 Zrotation Yrotation Xrotation
                    JOINT LeftHandPinky2
                    {
                      OFFSET 5.54936 1e-06 -8e-06
                      CHANNELS 3 Zrotation Yrotation Xrotation
                      JOINT LeftHandPinky3
                      {
                        OFFSET 3.070974 0.0 -4e-06
                        CHANNELS 3 Zrotation Yrotation Xrotation
                        JOINT LeftHandPinky4
                        {
                          OFFSET 1.549672 1e-06 0.0
                          CHANNELS 3 Zrotation Yrotation Xrotation
                          JOINT LeftHandPinkyEnd
                          {
                            OFFSET 1.952123 0.0 0.0
                            CHANNELS 3 Zrotation Yrotation Xrotation
                          }
                        }
                      }
                    }
                  }
                }
              }
            }
          }
          JOINT RightShoulder
          {
            OFFSET 23.161716 5.296122 -1.380114
            CHANNELS 3 Zrotation Yrotation Xrotation
            JOINT RightArm
            {
              OFFSET -16.027195 -2e-06 1.1e-05
              CHANNELS 3 Zrotation Yrotation Xrotation
              JOINT RightForeArm
              {
                OFFSET -28.736639 4e-06 2e-06
                CHANNELS 3 Zrotation Yrotation Xrotation
                JOINT RightHand
                {
                  OFFSET -27.133619 6e-06 0.0
                  CHANNELS 3 Zrotation Yrotation Xrotation
                  JOINT RightHandThumb1
                  {
                    OFFSET -2.274328 -3.351035 -0.83067
                    CHANNELS 3 Zrotation Yrotation Xrotation
                    JOINT RightHandThumb2
                    {
                      OFFSET -4.703594 -3e-06 2e-06
                      CHANNELS 3 Zrotation Yrotation Xrotation
                      JOINT RightHandThumb3
                      {
                        OFFSET -2.794935 -4e-06 -3e-06
                        CHANNELS 3 Zrotation Yrotation Xrotation
                        JOINT RightHandThumbEnd
                        {
                          OFFSET -3.183852 4e-06 1e-06
                          CHANNELS 3 Zrotation Yrotation Xrotation
                        }
                      }
                    }
                  }
                  JOINT RightHandIndex1
                  {
                    OFFSET -3.253496 -2.33755 -0.127667
                    CHANNELS 3 Zrotation Yrotation Xrotation
                    JOINT RightHandIndex2
                    {
                      OFFSET -6.344434 0.0 0.0
                      CHANNELS 3 Zrotation Yrotation Xrotation
                      JOINT RightHandIndex3
                      {
                        OFFSET -3.654871 0.0 -8e-06
                        CHANNELS 3 Zrotation Yrotation Xrotation
                        JOINT RightHandIndex4
                        {
                          OFFSET -2.327586 -1e-06 0.0
                          CHANNELS 3 Zrotation Yrotation Xrotation
                          JOINT RightHandIndexEnd
                          {
                            OFFSET -2.770001 3e-06 8e-06
                            CHANNELS 3 Zrotation Yrotation Xrotation
                          }
                        }
                      }
                    }
                  }
                  JOINT RightHandMiddle1
                  {
                    OFFSET -3.168223 -0.944764 0.411762
                    CHANNELS 3 Zrotation Yrotation Xrotation
                    JOINT RightHandMiddle2
                    {
                      OFFSET -6.266691 -1e-06 -4e-06
                      CHANNELS 3 Zrotation Yrotation Xrotation
                      JOINT RightHandMiddle3
                      {
                        OFFSET -4.348901 0.0 0.0
                        CHANNELS 3 Zrotation Yrotation Xrotation
                        JOINT RightHandMiddle4
                        {
                          OFFSET -3.00024 2e-06 -4e-06
                          CHANNELS 3 Zrotation Yrotation Xrotation
                          JOINT RightHandMiddleEnd
                          {
                            OFFSET -2.321477 -4e-06 -4e-06
                            CHANNELS 3 Zrotation Yrotation Xrotation
                          }
                        }
                      }
                    }
                  }
                  JOINT RightHandRing1
                  {
                    OFFSET -2.885654 0.293261 -0.119232
                    CHANNELS 3 Zrotation Yrotation Xrotation
                    JOINT RightHandRing2
                    {
                      OFFSET -6.032835 -1e-06 -4e-06
                      CHANNELS 3 Zrotation Yrotation Xrotation
                      JOINT RightHandRing3
                      {
                        OFFSET -4.33881 0.0 -4e-06
                        CHANNELS 3 Zrotation Yrotation Xrotation
                        JOINT RightHandRing4
                        {
                          OFFSET -2.654903 -4e-06 -4e-06
                          CHANNELS 3 Zrotation Yrotation Xrotation
                          JOINT RightHandRingEnd
                          {
                            OFFSET -1.935122 0.0 4e-06
                            CHANNELS 3 Zrotation Yrotation Xrotation
                          }
                        }
                      }
                    }
                  }
                  JOINT RightHandPinky1
                  {
                    OFFSET -2.866241 1.503904 -0.60527
                    CHANNELS 3 Zrotation Yrotation Xrotation
                    JOINT RightHandPinky2
                    {
                      OFFSET -5.553177 -2e-06 0.0
                      CHANNELS 3 Zrotation Yrotation Xrotation
                      JOINT RightHandPinky3
                      {
                        OFFSET -3.062664 -1e-06 -4e-06
                        CHANNELS 3 Zrotation Yrotation Xrotation
                        JOINT RightHandPinky4
                        {
                          OFFSET -1.546529 2e-06 4e-06
                          CHANNELS 3 Zrotation Yrotation Xrotation
                          JOINT RightHandPinkyEnd
                          {
                            OFFSET -1.952341 0.0 -4e-06
                            CHANNELS 3 Zrotation Yrotation Xrotation
                          }
                        }
                      }
                    }
                  }
                }
              }
            }
          }
        }
      }
    }
    JOINT LeftLeg
    {
      OFFSET -8.443107 2.567604 10.043214
      CHANNELS 3 Zrotation Yrotation Xrotation
      JOINT LeftShin
      {
        OFFSET 43.229198 1e-06 -1e-06
        CHANNELS 3 Zrotation Yrotation Xrotation
        JOINT LeftFoot
        {
          OFFSET 42.298611 1e-06 1e-06
          CHANNELS 3 Zrotation Yrotation Xrotation
          JOINT LeftToeBase
          {
            OFFSET 14.165858 1e-06 0.0
            CHANNELS 3 Zrotation Yrotation Xrotation
            JOINT LeftToeEnd
            {
              OFFSET 6.7141 -0.234461 0.0
              CHANNELS 3 Zrotation Yrotation Xrotation
            }
          }
        }
      }
    }
    JOINT RightLeg
    {
      OFFSET -8.303923 2.592729 -10.047278
      CHANNELS 3 Zrotation Yrotation Xrotation
      JOINT RightShin
      {
        OFFSET -43.369682 0.0 1e-06
        CHANNELS 3 Zrotation Yrotation Xrotation
        JOINT RightFoot
        {
          OFFSET -42.260784 4e-06 2e-06
          CHANNELS 3 Zrotation Yrotation Xrotation
          JOINT RightToeBase
          {
            OFFSET -14.222245 -2e-06 -1e-06
            CHANNELS 3 Zrotation Yrotation Xrotation
            JOINT RightToeEnd
            {
              OFFSET -6.660062 0.232574 -2e-06
              CHANNELS 3 Zrotation Yrotation Xrotation
            }
          }
        }
      }
    }
  }
}
MOTION
Frames: 4
Frame Time: 0.03333333333333333
0.0 0.0 0.0 0.0 -0.0 0.0 -0.458577 99.390312 0.436168 89.550797 4.719602 84.246811 -1.175184 -0.484092 -0.812602 -11.100309 -1.652807 -3.118328 11.846343 2.338257 -6.067471 26.770195 -10.714959 2.783711 -2.776803 -0.618207 7.845733 -32.755482 2.208735 8.590291 6e-06 0.0 0.0 0.058002 0.021817 -0.112387 -0.119631 -0.037316 -0.13949 -0.092074 0.074051 -0.06882 -175.160416 -82.291458 -175.267807 60.998322 3.352488 -46.856556 13.811235 1.07255 0.267863 -3.798733 -8.742188 -15.782097 17.636633 -26.322737 52.411205 -19.466658 -14.395598 29.410389 -2e-06 -8.774822 -3e-06 15.443387 -16.857546 6.279647 -0.609776 -1.795654 -3.889328 -4.807089 -11.04681 -2.93785 5e-06 -20.976019 -1e-06 -5.019971 -25.033554 -4.031879 6e-06 -3e-06 0.0 -10.634536 -5.68697 -3.565586 10.573275 -17.922951 -3.113898 4e-06 -13.821209 1e-06 -0.501777 -31.181505 -4.027014 -11.654819 -59.19809 7.704195 -13.982715 -7.150198 -2.875041 13.772731 -8.401494 -3.218242 0.347735 -34.211555 0.771658 -0.963029 -17.73337 2.621022 1e-06 -0.0 -1e-06 -17.346422 -20.095219 -4.201782 21.757561 -1.638375 3.866431 2e-06 -6.338824 1e-06 -1.697588 -22.591749 -6.194006 -1e-06 -4e-06 -2e-06 30.214653 -66.494125 164.676285 30.908909 -54.035099 3.340634 13.507144 -0.454208 -0.059545 3.491227 -10.761198 9.681021 22.182121 -20.375898 49.933323 -16.701815 -16.743528 28.476534 -1e-06 -12.690601 0.0 16.540806 -17.700911 2.529092 -0.10592 -1.513856 -4.275882 -5.039041 -5.612871 -2.953557 4e-06 -11.020525 -3e-06 -6.111298 -15.895332 -3.840471 0.0 -2e-06 0.0 -10.283371 -5.680288 -4.341839 11.028296 -11.302406 -2.372633 -1.384268 -14.238582 -6.320122 -0.625437 -26.924194 -3.827603 -3.923877 -50.367886 -3.508436 -13.708527 -7.363476 -3.720938 18.14115 -14.052741 -3.242675 6e-06 -18.787271 -1e-06 -0.429711 -8.456046 2.555504 -1e-06 2e-06 -0.0 -15.923536 -20.094484 -5.473587 30.419218 -7.190829 1.735927 3e-06 -8.162927 -1e-06 -1.861904 -22.861469 -6.16794 1e-06 -4e-06 -1e-06 -175.220932 -3.345859 -5.16086 14.118196 -0.094777 0.119553 -82.425186 -6.909168 -6.609288 -5.368673 1.663444 2.193047 -0.999999 0.0 -0.0 4.731668 -3.733253 2.481462 13.551346 -0.067597 0.214339 -83.101051 5.211431 -3.255932 -4.308249 0.503285 1.663477 -1.000003 -0.0 -0.0 
0.0 0.0 0.0 0.0 -0.0 0.0 -0.474164 99.364754 0.394896 89.470268 4.687984 84.352486 -1.231358 -0.474049 -0.824484 -11.10129 -1.643723 -3.050484 11.893818 2.348634 -6.092818 26.905579 -10.669964 2.716526 -2.785505 -0.64473 7.882093 -32.740307 2.292512 8.534257 6e-06 0.0 1e-06 0.068767 0.024927 -0.108135 -0.093886 -0.032236 -0.13079 -0.069221 0.075884 -0.067774 -174.074875 -82.322304 -176.272766 61.415619 3.149687 -45.931889 13.929508 0.682109 0.295977 -3.610164 -9.465789 -14.419815 17.636627 -26.322733 52.411205 -19.46666 -14.395597 29.410389 2e-06 -8.774823 -3e-06 15.329821 -16.880478 6.307534 -0.609776 -1.795653 -3.889327 -4.80709 -11.046809 -2.937849 3e-06 -20.976015 -1e-06 -5.019971 -25.033552 -4.031883 7e-06 -2e-06 -1e-06 -10.634535 -5.686971 -3.565588 10.573272 -17.922949 -3.113899 2e-06 -13.821208 0.0 -0.501777 -31.181501 -4.027017 -11.617846 -59.123417 7.733308 -13.982715 -7.150198 -2.875041 13.772729 -8.401491 -3.218241 0.347732 -34.211544 0.771656 -0.96303 -17.733368 2.62102 1e-06 -1e-06 -1e-06 -17.346416 -20.095217 -4.201783 21.757559 -1.638374 3.866429 0.0 -6.338823 1e-06 -1.697591 -22.591743 -6.194006 1e-06 -4e-06 -3e-06 30.307295 -66.399986 164.733444 31.085766 -53.954002 3.158247 13.73963 -0.395569 -0.06248 3.642843 -10.409453 9.535769 22.182117 -20.375898 49.933327 -16.701817 -16.74353 28.476538 -3e-06 -12.690601 1e-06 16.548447 -17.782047 2.565391 -0.10592 -1.513857 -4.275881 -5.039041 -5.612871 -2.953557 4e-06 -11.020525 -3e-06 -6.111297 -15.895338 -3.840472 1e-06 -2e-06 0.0 -10.283371 -5.680288 -4.341841 11.028296 -11.302406 -2.372633 -1.384268 -14.238583 -6.320123 -0.625437 -26.924192 -3.827602 -4.041253 -50.409054 -3.421952 -13.708526 -7.363476 -3.72094 18.141151 -14.05274 -3.242675 7e-06 -18.787271 -1e-06 -0.429712 -8.456043 2.555503 -1e-06 2e-06 -1e-06 -15.923536 -20.094484 -5.473587 30.419222 -7.190829 1.735925 2e-06 -8.162928 -1e-06 -1.861901 -22.861471 -6.167942 0.0 -3e-06 -1e-06 -175.555191 -3.468786 -5.059069 14.674095 -0.100249 0.120856 -82.640228 -7.062167 -6.536743 -5.310188 1.655336 2.184573 -0.999998 0.0 0.0 4.607181 -3.611579 2.526157 13.745727 -0.04999 0.200388 -83.17897 5.143751 -3.193242 -4.326785 0.562406 1.664941 -1.000001 0.0 0.0 
0.0 0.0 0.0 0.0 -0.0 0.0 -0.506831 99.347244 0.356759 89.446266 4.622014 84.402893 -1.274203 -0.494416 -0.829605 -11.129216 -1.619506 -2.970042 11.920374 2.303008 -6.089328 27.046534 -10.572618 2.7007 -2.77641 -0.657471 7.945085 -32.681351 2.304616 8.46083 6e-06 -0.0 -0.0 0.076763 0.025767 -0.100678 -0.074487 -0.034027 -0.121092 -0.051179 0.080044 -0.062986 -171.820587 -82.379082 -178.643433 61.755676 2.837425 -45.752556 14.984293 0.64404 0.361606 -3.459065 -9.299729 -14.033546 17.636627 -26.322729 52.411209 -19.466663 -14.395598 29.410395 -1e-06 -8.774821 -2e-06 15.405152 -16.872965 6.252708 -0.609777 -1.795654 -3.889328 -4.807088 -11.046809 -2.93785 4e-06 -20.976015 -1e-06 -5.01997 -25.033554 -4.031883 7e-06 -3e-06 0.0 -10.634535 -5.68697 -3.565587 10.573275 -17.922949 -3.113903 3e-06 -13.821209 -1e-06 -0.501777 -31.181501 -4.027019 -11.600774 -59.05946 7.735731 -13.982716 -7.150198 -2.875044 13.772731 -8.401489 -3.218243 0.347732 -34.211544 0.771654 -0.963027 -17.73337 2.621018 0.0 -1e-06 -1e-06 -17.346422 -20.095217 -4.201784 21.757559 -1.638374 3.866429 1e-06 -6.338823 1e-06 -1.69759 -22.591743 -6.194008 -0.0 -6e-06 -2e-06 30.621145 -66.445023 164.468369 31.193628 -54.126659 2.923621 13.966788 -0.311249 -0.044468 3.752158 -10.146231 9.258388 22.182116 -20.375887 49.933308 -16.701815 -16.74353 28.476524 -1e-06 -12.690601 -1e-06 16.50852 -17.783323 2.58723 -0.105919 -1.513856 -4.275881 -5.039042 -5.612872 -2.953556 3e-06 -11.020524 -1e-06 -6.1113 -15.89533 -3.840472 -0.0 -1e-06 -0.0 -10.283373 -5.680288 -4.341838 11.028296 -11.302404 -2.372633 -1.384271 -14.238583 -6.32012 -0.625439 -26.924187 -3.827603 -4.200137 -50.34444 -3.366711 -13.708524 -7.363476 -3.72094 18.14115 -14.052739 -3.242674 8e-06 -18.787268 -3e-06 -0.429712 -8.456043 2.555501 -1e-06 0.0 -2e-06 -15.923536 -20.094482 -5.473585 30.419214 -7.190826 1.735927 3e-06 -8.162928 -1e-06 -1.861904 -22.861467 -6.167942 1e-06 -3e-06 -1e-06 -175.810318 -3.538195 -5.084041 15.010437 -0.103677 0.119386 -82.757927 -7.170741 -6.519659 -5.221123 1.604813 2.168807 -1.0 -0.0 -0.0 4.400344 -3.55309 2.452074 14.011613 -0.044308 0.186421 -83.278778 5.178724 -3.083987 -4.306511 0.605831 1.669244 -1.000002 -0.0 0.0 
0.0 0.0 0.0 0.0 -0.0 0.0 -0.542991 99.335464 0.307125 89.455307 4.568624 84.396103 -1.267337 -0.519915 -0.83617 -11.145821 -1.58455 -2.913724 11.892693 2.211855 -6.015643 27.152086 -10.492467 2.733444 -2.771183 -0.649593 7.996852 -32.673748 2.305697 8.384614 5e-06 -0.0 -0.0 0.078834 0.023476 -0.093636 -0.070601 -0.037364 -0.114141 -0.048993 0.07929 -0.057196 -169.572266 -82.337013 178.876724 61.915249 2.743651 -45.966114 16.496668 0.834101 0.43034 -3.294071 -8.542618 -14.417119 17.636633 -26.322727 52.411201 -19.466663 -14.395596 29.410389 1e-06 -8.774822 -2e-06 15.532986 -16.868029 6.173573 -0.609776 -1.795654 -3.88933 -4.80709 -11.046813 -2.937849 4e-06 -20.976021 -1e-06 -5.019973 -25.03356 -4.031882 6e-06 -3e-06 0.0 -10.634535 -5.686973 -3.565589 10.573272 -17.922949 -3.113901 2e-06 -13.82121 -0.0 -0.501774 -31.181511 -4.02702 -11.636712 -59.032398 7.742856 -13.982716 -7.1502 -2.875042 13.772731 -8.401492 -3.218242 0.347733 -34.211555 0.771654 -0.963029 -17.73337 2.621018 1e-06 0.0 -1e-06 -17.346424 -20.095221 -4.201782 21.757561 -1.638375 3.866429 0.0 -6.338823 -0.0 -1.69759 -22.591747 -6.19401 -0.0 -3e-06 -2e-06 30.977999 -66.54248 164.032181 31.134892 -54.387676 2.754297 14.133525 -0.273188 -0.024157 3.792556 -10.01761 9.128872 22.182116 -20.375898 49.933319 -16.701813 -16.74353 28.476532 -2e-06 -12.690602 1e-06 16.463501 -17.729214 2.564775 -0.105918 -1.513855 -4.275879 -5.039041 -5.61287 -2.953557 2e-06 -11.020524 -1e-06 -6.111299 -15.89533 -3.84047 0.0 0.0 -1e-06 -10.283368 -5.680288 -4.341838 11.028295 -11.302403 -2.372634 -1.384269 -14.238579 -6.320119 -0.625439 -26.924187 -3.827601 -4.284241 -50.171093 -3.405883 -13.708524 -7.363475 -3.72094 18.141148 -14.052737 -3.242674 5e-06 -18.787266 -0.0 -0.429712 -8.456045 2.555504 -1e-06 -0.0 -1e-06 -15.923536 -20.094482 -5.473584 30.419214 -7.190824 1.735926 2e-06 -8.162926 0.0 -1.861903 -22.861467 -6.167941 0.0 -4e-06 -2e-06 -175.967087 -3.568903 -5.210288 15.199997 -0.108903 0.114722 -82.810425 -7.206698 -6.577535 -5.160301 1.54957 2.157546 -1.0 0.0 0.0 4.183338 -3.529759 2.326768 14.301446 -0.061152 0.175298 -83.380081 5.291615 -2.94027 -4.300781 0.612696 1.669496 -1.000002 -0.0 -0.0 
